<svg id="weplay_logo" xmlns="http://www.w3.org/2000/svg" viewBox="0 0 900 256"><defs><style>.cls-1{fill:#ffad06;}.cls-2{fill:#00b400;}.cls-3{fill:#fff;}.cls-4{fill:none;}</style></defs><g id="WEPLAY"><path id="Y" class="cls-1" d="M897.45,347.71c0,6.86.32,13.15-.09,19.39-.37,5.64.86,10.44,4.49,14.8,6,7.25,11.91,14.64,18.46,22.74,7.19-9.64,13.84-18.36,20.2-27.29a10.74,10.74,0,0,0,1.46-6.11c-.11-6.48-.52-13-.94-19.44-.19-2.93.74-4.29,3.91-4.14,4.15.2,8.33.16,12.49,0,2.86-.1,4.29.71,4.26,3.9-.08,7.66.64,15.37,0,23-.34,3.89-2.39,8-4.65,11.29-6.16,9.09-12.17,18.44-19.51,26.52S929.07,429,929.94,439c1.26,14.42,2,12-11,12-10.46,0-11.2,2.17-9.48-10.68C911.15,428,908.26,418.28,900,409c-7.07-7.89-12.87-17-18.78-25.83a20.53,20.53,0,0,1-3-9.73c-.44-7.31-.05-14.66-.18-22,0-2.82,1-3.85,3.81-3.78C887,347.8,892.13,347.71,897.45,347.71Z" transform="translate(-62 -256)"/><path id="A" class="cls-1" d="M872.44,451c-6.71,0-13.18.26-18.59-.18-1.46-.11-3.35-2.07-4-3.63-1.83-4.25-3.13-8.74-4.61-13.14-1.32-3.94-3.78-5.79-8.18-5.68-10.31.23-20.64.21-31,0-3.76-.08-6,1.37-7.21,4.75-1.6,4.54-3.13,9.1-4.66,13.67-1,3.05-2.87,4.54-6.3,4.38-4.88-.24-9.78-.06-15.53-.06,1.1-3.34,1.67-5.38,2.43-7.34,12.31-31.4,24.71-62.76,36.9-94.2,1.31-3.38,3.1-4.28,6.37-3.63a17.06,17.06,0,0,0,5.92.48c7.84-1.35,7.15-2.13,10.49,6.56,11.69,30.39,24.25,60.83,35.83,91.26C871.05,446.21,871.57,448.23,872.44,451Zm-49.83-79.31-1.54-.06c-4.47,11.92-9,23.83-13.39,35.77-1.22,3.31,1.05,4.2,3.64,4.3,5.32.2,10.66.34,16,.22,3-.06,6.07-.7,10-1.18Z" transform="translate(-62 -256)"/><path id="L" class="cls-1" d="M740.82,451.14c-16.46,0-32.92-.16-49.37.1-5.2.08-5.48-2.51-5.42-6.54.35-21.63.63-43.26.68-64.89,0-9-.48-18-1-26.93-.2-3.8.84-5.55,5-5.14a66.84,66.84,0,0,0,11,0c3.37-.23,4.87.78,4.74,4.4-.51,13.47-1,26.94-1.16,40.41-.15,13,.14,25.95.19,38.92,0,2.92,1.26,4.19,4.26,4,13.45-.71,26.92-1.1,40.34-2.15,4-.31,4.88.6,4.91,4.32C755.11,451.76,755.21,451.76,740.82,451.14Z" transform="translate(-62 -256)"/><g id="P"><path class="cls-1" d="M595.46,397.45c-.35,17.24-.45,10.08-.52,31.05,0,7.16.49,14.32,1,21.47.21,3-.84,4.41-5,4.09a81.8,81.8,0,0,0-11,0c-3.38.17-4.88-.63-4.74-3.52.5-10.73,1-21.46,1.16-32.2.15-10.33-.14-20.67-.2-31" transform="translate(-62 -256)"/><path id="ゲームコントローラー" class="cls-1" d="M576.19,356.66c.91-2.6,1.69-5.37,4.22-6.85A31.47,31.47,0,0,1,586,347.6a4.79,4.79,0,0,1,1.57-.1q33.54,0,67.07,0c5.53,0,9.3,2.6,10.83,7.47a13.12,13.12,0,0,1,.53,3.8q.06,14.75,0,29.49c0,6.74-4.32,11.24-11,11.25q-33.88.09-67.77,0c-5.52,0-9.09-2.87-10.68-8.17-.1-.33-.25-.65-.37-1Zm64.92,2.11H601.2v29.47h39.91ZM597.19,375.7V371h-5.66v-5.48H587v5.66h-5.7v4.58h5.79v5.66h4.65V375.7Zm63.71-7.1a3.75,3.75,0,0,0-3.51-3.5,3.67,3.67,0,0,0-3.45,3.54,3.48,3.48,0,1,0,7,0Zm-11.22,13.12a3.39,3.39,0,0,0,3.49-3.37,3.43,3.43,0,1,0-6.85-.11A3.32,3.32,0,0,0,649.68,381.72Z" transform="translate(-62 -256)"/></g><path id="E" class="cls-2" d="M544.32,389.74c-.4,4.53-.78,9.3-1.26,14.05-.38,3.71-3.3,2.57-5.4,2.53-11-.21-22-.64-32.94-.8-6.64-.1-7.07.49-7.08,7.05,0,4.83-.08,9.66,0,14.49.13,6.31,1.59,8.33,7.94,8.35,10.47,0,20.94-.72,31.41-1.17,3.46-.15,6.91-.42,11.42-.7-1,6.13-1.84,11.61-3,17-.14.62-2.18,1.2-3.33,1.19-19.45-.14-38.91-.47-58.37-.55-4.18,0-6-1.17-5.76-5.71.78-12.62,1.71-25.27,1.66-37.9-.06-18.13-.77-36.27-1.58-54.38-.21-4.54,1-5.66,5.44-5.6q27.47.33,55,0c4.42-.05,6,1.32,6.58,5.78,1.51,11.55,1.77,11.45-9.74,10.75-9.63-.59-19.27-1.18-28.92-1.4-7.49-.18-8.7,1.27-8.74,8.69,0,4,0,8,0,12,0,6.38.17,6.47,6.38,6.4,6.66-.09,13.32-.07,20-.09Z" transform="translate(-62 -256)"/><path id="W" class="cls-2" d="M389.29,410c-4.46,11.23-8.51,21.39-12.54,31.55-3.92,9.88-7.14,11.73-17.6,9.47a6.6,6.6,0,0,1-3.86-3.33Q341.69,419,328.4,390.29a16.52,16.52,0,0,1-1.55-6.72c0-10.65.34-21.31.4-32,0-3.08,1.26-4.09,4.22-3.95a102.25,102.25,0,0,0,11.48,0c3.17-.2,4.13,1.08,4,4-.47,10-.94,19.95-1.2,29.93a17.38,17.38,0,0,0,1.14,7.29c5.49,12.29,11.24,24.46,16.93,36.66a9.12,9.12,0,0,0,1.42,1.65c12.06-25.11,18.56-51,13.61-79.14h20.59c0,13.28-1.73,26.93.48,39.92s8.37,25.41,12.8,38.07l1.4.13c.94-1.63,2-3.2,2.79-4.89,3.86-8.1,7.38-16.39,11.57-24.32,4.4-8.35,4.85-17,4.19-26.14-.54-7.42-.11-14.91-.11-23.14,5.23,0,10.82-.13,16.4.14.85,0,2.3,1.85,2.33,2.88q.5,17,.54,34a11.67,11.67,0,0,1-1.37,4.73c-8.93,19.14-18,38.22-26.83,57.39-1.58,3.43-3.78,4.47-7.39,4.37-12.72-.36-10,1.66-14.9-10.11C397.22,431.17,393.57,421.07,389.29,410Z" transform="translate(-62 -256)"/></g><path id="サイコロ右" class="cls-2" d="M176.05,511.71v-5.17q0-57.23,0-114.45c0-3.59.61-6.27,4-8.32q49.53-29.55,98.92-59.34c.71-.43,1.47-.75,3.14-1.6.55,3.8,1.45,7.14,1.46,10.48q.17,50.47,0,101c0,9.2-3.57,16.75-11.85,21.71-29,17.35-57.93,34.81-87,52.14C182.29,509.61,179.37,510.37,176.05,511.71Zm65.11-101.53c.23-5.84-4.18-8.76-9.78-6.14a21,21,0,0,0-12.26,16c-1.13,6.07,3.1,9.71,8.94,7.73C234.37,425.59,240.9,416.84,241.16,410.18Zm8.42-36.74c-.27,6.37,3.81,9.53,9.11,7.17,6.74-3,11.42-8.16,12.36-15.69.31-2.46-.31-6.18-1.94-7.41s-5.6-1.23-7.8-.2A20.14,20.14,0,0,0,249.58,373.44Zm-61,93.77c-.39,6.55,3.54,9.62,9,7.47a19.8,19.8,0,0,0,12.79-16c.36-2.24-.55-5.53-2.12-7-1.39-1.29-4.93-1.63-6.82-.8A21,21,0,0,0,188.61,467.21Z" transform="translate(-62 -256)"/><path id="サイコロ左" class="cls-2" d="M169.4,511.81c-3.57-1.61-6.86-2.73-9.78-4.47-28.16-16.82-56.19-33.86-84.42-50.56C66,451.36,62,443.59,62.05,433.28c0-33,0-66,.06-99,0-3.57.79-7.15,1.34-11.79,4.57,2.72,8.2,4.87,11.82,7.05q44.73,26.88,89.49,53.72c3.11,1.86,5,3.83,5,7.8-.12,39-.07,78-.08,117C169.63,509,169.51,510,169.4,511.81ZM71.68,362.86c0,7.05,7.41,16.52,14.16,18.16,4.22,1,7.27-.94,7.94-5.13,1.2-7.52-7-18.53-14.54-19.58C74.11,355.6,71.66,357.73,71.68,362.86Zm61,33.37c.1,7.36,7.35,16.44,14.26,17.85,5,1,8.12-1.6,7.92-6.63-.27-6.52-6.73-15.39-12.91-17.71C136.67,387.76,132.6,390.61,132.68,396.23Zm-61,27.61c0,6.94,7.2,16.25,13.78,17.87,5.21,1.28,8.63-1.38,8.4-6.56-.29-6.92-6.33-15.22-12.83-17.66C75.53,415.43,71.66,418.06,71.68,423.84Zm61,33.12c0,7.11,6.8,16.09,13.7,18,5.12,1.4,8.7-1.36,8.5-6.54-.25-6.48-6.94-15.54-13.07-17.71C136.68,448.86,132.71,451.59,132.67,457Zm-8.49-35.25c.11-7.09-6-15.75-12.76-18-5.49-1.85-9.54,1-9.3,6.46.29,6.68,7.16,15.7,13.47,17.69C120.85,429.5,124.09,427.18,124.18,421.71Z" transform="translate(-62 -256)"/><path id="サイコロ上" class="cls-1" d="M66.87,316.68c3.62-2.64,6.39-5,9.46-6.86,27.27-16.39,54.68-32.53,81.85-49.07,10.1-6.15,19.43-6,29.48.08,27.17,16.54,54.58,32.69,81.84,49.08,3.06,1.84,5.76,4.27,9.26,6.91-2.94,1.87-5,3.23-7.06,4.49q-46.68,28-93.34,56.06c-3.65,2.21-6.6,2.69-10.52.31-32.32-19.56-64.77-38.92-97.18-58.35C69.69,318.74,68.79,318,66.87,316.68Z" transform="translate(-62 -256)"/><g id="サイコロ文字"><path id="Y-2" data-name="Y" class="cls-3" d="M226.17,314.13c-.1-.39-.18-.71-.27-1L224,306.65a9.49,9.49,0,0,1-.3-1,2.55,2.55,0,0,0-1.41-1.75c-1.14-.67-2.31-1.29-3.48-1.92l-3.58-1.91a4.2,4.2,0,0,1-.49-.33.41.41,0,0,1-.05-.67,2.42,2.42,0,0,1,.51-.38c1.32-.81,2.66-1.59,4-2.41a2.11,2.11,0,0,1,2.32-.1c2.37,1.35,4.74,2.69,7.08,4.09a7,7,0,0,1,3.12,4.2c.48,1.58,1.12,3.11,1.58,4.69a29.57,29.57,0,0,1,.68,3.37,6.2,6.2,0,0,0,1.49,3.06,15.62,15.62,0,0,0,5.12,3.5c.8.41,1.62.78,2.4,1.23a5.94,5.94,0,0,1,.92.82,5.56,5.56,0,0,1-.88.81c-1.25.76-2.52,1.47-3.77,2.22-1.43.86-2.06.82-3.41-.17a41,41,0,0,0-3.55-2.48,17.39,17.39,0,0,0-6.81-2.35c-2.56-.3-5.14-.45-7.71-.71-2.74-.28-5.47-.61-8.2-.94A33.64,33.64,0,0,1,206,317a9.86,9.86,0,0,1-2.6-.94c-2.54-1.39-5-2.86-7.53-4.31-.89-.52-.87-.83,0-1.36,1.47-.89,3-1.76,4.41-2.66a.51.51,0,0,1,.62,0c1.89,1.11,3.83,2.15,5.66,3.34a13.53,13.53,0,0,0,6.82,2.19c2.32.13,4.64.33,7,.5l5.18.37Z" transform="translate(-62 -256)"/><path id="A-2" data-name="A" class="cls-3" d="M196,348.76c-.62-.72-1.25-1.42-1.84-2.15-.77-.93-1.52-1.89-2.27-2.84-1-1.19-1.89-2.4-2.85-3.6l-2.39-3c-.76-.95-1.5-1.91-2.25-2.86l-2.26-2.84-2.38-3-2.5-3.12c-.72-.91-1.46-1.81-2.17-2.74a.79.79,0,0,1,.26-1.28,4.08,4.08,0,0,1,.73-.35,6.17,6.17,0,0,0,2.57-1.61,2.19,2.19,0,0,1,2.34-.58c1.12.29,2.23.6,3.35.9l5.24,1.41,5.07,1.33,6.21,1.64,4.8,1.27,5.11,1.34,5.24,1.39c1.73.46,3.47.91,5.2,1.39s3.34,1,5.1,1.47c-.17.12-.25.2-.35.26-1.61.93-3.23,1.84-4.82,2.79a3.55,3.55,0,0,1-2.82.32c-1.78-.45-3.54-1-5.3-1.52a5.68,5.68,0,0,0-3.79-.17,7.89,7.89,0,0,0-1.3.65q-4.46,2.61-8.9,5.23a6.33,6.33,0,0,0-.61.39c-.8.59-.8,1.17-.15,1.94,1,1.18,2,2.32,3.07,3.48a.88.88,0,0,1-.09,1.35l-.3.21Zm-10.92-23.53,2.53,3.12c.79,1,1.6,1.91,2.38,2.87s1.65,2.06,2.5,3.06a1.66,1.66,0,0,0,2.24.5,10.69,10.69,0,0,0,1.25-.66c1.61-.95,3.23-1.89,4.81-2.88a22.53,22.53,0,0,0,1.87-1.47c-.35-.12-.59-.21-.84-.28-2.59-.7-5.19-1.39-7.78-2.1l-8.08-2.21A3.13,3.13,0,0,0,185.06,325.23Z" transform="translate(-62 -256)"/><path id="L-2" data-name="L" class="cls-3" d="M171.05,363.26a11,11,0,0,1-1.72-.68c-3.68-2.17-7.33-4.4-11-6.55-4.61-2.69-9.26-5.33-13.9-8-1.34-.76-2.72-1.44-4.08-2.15-.38-.2-.76-.41-1.12-.63-.69-.42-.69-.83,0-1.24,1.27-.76,2.54-1.51,3.8-2.28a2.1,2.1,0,0,1,2.33.05c2.07,1.27,4.12,2.59,6.22,3.82,5.43,3.19,10.89,6.34,16.34,9.51.89.52,1.81,1,2.69,1.53a2.17,2.17,0,0,0,2.49-.06l11.05-7.28a5.76,5.76,0,0,1,.83-.48,1.35,1.35,0,0,1,1.28,0c1.24.71,2.49,1.41,3.7,2.17.68.43.69,1,0,1.46-.93.62-1.93,1.15-2.9,1.72q-7.2,4.23-14.42,8.44A10.8,10.8,0,0,1,171.05,363.26Z" transform="translate(-62 -256)"/><path id="P-2" data-name="P" class="cls-3" d="M176,288.79l3.52,2.15c3.55,2.15,7.11,4.3,10.83,6.17a5.07,5.07,0,0,1,.67.39c.41.28.41.55,0,.86a4.19,4.19,0,0,1-.5.31c-1.12.64-2.26,1.26-3.36,1.93a2.09,2.09,0,0,1-2.46-.06c-5.5-3.57-11.07-7-16.8-10.24-3.28-1.83-6.49-3.8-9.71-5.74a3.51,3.51,0,0,1-1-1.18,1,1,0,0,1,.07-1.08,4.42,4.42,0,0,1,1.46-1.52q9.54-5.67,19.06-11.37a6.61,6.61,0,0,1,7.29.12q3.84,2.34,7.64,4.75a10.07,10.07,0,0,1,1.64,1.35,1.45,1.45,0,0,1,.05,2.06,5.39,5.39,0,0,1-1.23,1l-16.66,9.76Zm-10.14-8.21.21.16c2.71,1.63,5.43,3.25,8.14,4.89a.57.57,0,0,0,.67-.06l10.78-6.34c.13-.07.24-.16.39-.26l-.24-.18-8.06-4.94a.51.51,0,0,0-.62,0c-3.64,2.17-7.28,4.32-10.91,6.49C166.08,280.4,166,280.49,165.84,280.58Zm3.77,3.72c-1.19-1-1.19-1-2.4-.26a1.32,1.32,0,0,0-.2.12.55.55,0,0,1-.74,0,9.65,9.65,0,0,0-1-.59.53.53,0,0,0-.41-.08c-.39.19-.76.43-1.2.69l1.66,1-1.56.93c1,.88,1.22.91,2.23.31a1.73,1.73,0,0,1,.44-.24.93.93,0,0,1,.57,0c.38.18.73.43,1.11.63a.52.52,0,0,0,.41.07c.4-.2.78-.44,1.24-.71l-1.65-1Zm15.5-12.59a3.73,3.73,0,0,0-1,.25,1,1,0,0,0-.45.66.85.85,0,0,0,.4.64,2,2,0,0,0,2,0,.69.69,0,0,0,0-1.27A4,4,0,0,0,185.11,271.71Zm.68,3a6.8,6.8,0,0,0-1.18.39.63.63,0,0,0-.09,1.1,2.06,2.06,0,0,0,2.35,0c.3-.28.36-.61,0-.86A7.15,7.15,0,0,0,185.79,274.74Z" transform="translate(-62 -256)"/><path id="E-2" data-name="E" class="cls-3" d="M179,303.8a8.67,8.67,0,0,1-.92.72l-11.82,6.65c-1.44.81-2.9,1.61-4.32,2.46a3,3,0,0,1-3.38-.07c-3.32-2.09-6.63-4.21-10-6.14-4.5-2.53-9.09-4.89-13.64-7.32-1.15-.62-2.32-1.22-3.47-1.83-.14-.07-.27-.15-.4-.23-.61-.41-.64-.78,0-1.18,1-.66,2.12-1.26,3.17-1.89q6.31-3.78,12.61-7.56a3.25,3.25,0,0,1,3.37-.26c1,.47,1.93.9,2.87,1.4.56.3.58.61.05.95-.79.51-1.63.95-2.45,1.4-2.88,1.56-5.77,3.1-8.64,4.66a5,5,0,0,0-.92.67.64.64,0,0,0,0,1.06,6.51,6.51,0,0,0,.79.62c1.67,1,3.36,1.91,5,2.87a2.25,2.25,0,0,0,2.48-.22c3.73-2.23,7.49-4.43,11.23-6.65a.65.65,0,0,1,.85,0c1,.73,2,1.42,3,2.12l.19.14c.64.5.61.67-.12,1.07L154.16,303a5,5,0,0,0-.75.52c-.28.23-.35.5,0,.76a3.32,3.32,0,0,0,.46.38q2.78,1.57,5.57,3.13a3.73,3.73,0,0,0,4-.18l7.82-4.88c1.14-.71,2.25-1.47,3.38-2.18a.55.55,0,0,1,.5,0C176.41,301.62,177.66,302.67,179,303.8Z" transform="translate(-62 -256)"/><path id="W-2" data-name="W" class="cls-3" d="M120.13,303.35c1.5-.87,2.93-1.72,4.38-2.52a1.67,1.67,0,0,1,1.62.08c3.43,1.82,6.86,3.63,10.26,5.51a4.49,4.49,0,0,1,1.31,1.36c1.23,1.72,2.42,3.48,3.63,5.22l4.2,6c.47.67.95,1.33,1.4,2a.79.79,0,0,1-.2,1.24,30.59,30.59,0,0,1-3.22,1.78,2.54,2.54,0,0,1-1.52,0c-3.65-.86-7.3-1.76-10.94-2.65l-3.55-.85-.56-.09,1.24,1.48,3.36,3.94c.62.74,1.27,1.48,1.84,2.26.75,1,.58,1.7-.51,2.36a6.57,6.57,0,0,1-5.11.8c-3-.69-6-1.2-9-1.79l-7.34-1.46c-2.14-.43-4.29-.83-6.43-1.3a10.21,10.21,0,0,1-2.41-.81c-3.14-1.61-6.25-3.28-9.37-4.94a3.85,3.85,0,0,1-.74-.53.35.35,0,0,1,0-.58,2.62,2.62,0,0,1,.34-.24L96,317.73a1.84,1.84,0,0,1,2,0c2.23,1.26,4.45,2.53,6.68,3.78,1,.55,2,1.09,3,1.61a15.8,15.8,0,0,0,4,1.09c2.2.47,4.41.89,6.62,1.34l6.3,1.27a5.6,5.6,0,0,0,1,0c-5.09-7.09-11.91-11.65-20-14.69l3.28-2c.63-.37,1.27-.73,1.88-1.12a.62.62,0,0,1,.71,0c2.3,1.32,4.59,2.64,6.92,3.91a39.07,39.07,0,0,0,9,3.66c3,.79,6.07,1.55,9.1,2.33.37.09.74.21,1.11.28a3,3,0,0,0,.67,0l.09-.17c-.52-.79-1-1.59-1.57-2.37-1.05-1.53-2.13-3.05-3.17-4.6a9.34,9.34,0,0,0-3.09-2.91c-1.81-1.06-3.69-2-5.53-3-1.58-.87-3.13-1.77-4.7-2.65Z" transform="translate(-62 -256)"/></g><rect id="_スライス_" class="cls-4" width="900" height="256"/></svg>